<svg width="39" height="45" viewBox="0 0 39 45" fill="none" xmlns="http://www.w3.org/2000/svg">
<path d="M9.75001 0V14.8772H14.625V0H9.75001Z" fill="white"/>
<path d="M24.375 14.8772V6.19882H19.5V14.8772H24.375Z" fill="white"/>
<path d="M4.87501 14.8772V8.67835H0V14.8772H4.87501Z" fill="white"/>
<path d="M24.375 28.5146C24.375 25.5156 26.4685 23.0141 29.25 22.4398V19.8362H34.125V22.3158H39V27.2748H30.4688C29.7957 27.2748 29.25 27.8299 29.25 28.5146C29.25 29.1993 29.7957 29.7543 30.4688 29.7543H32.9063C36.2718 29.7543 39 32.5296 39 35.9532C39 38.9521 36.9065 41.4536 34.125 42.028V44.6315H29.25V42.152H24.375V37.1929H32.9063C33.5794 37.1929 34.125 36.6379 34.125 35.9532C34.125 35.2685 33.5794 34.7134 32.9063 34.7134H30.4688C27.1033 34.7134 24.375 31.9381 24.375 28.5146Z" fill="white"/>
</svg>
