<svg width="39" height="45" viewBox="0 0 39 45" fill="none" xmlns="http://www.w3.org/2000/svg">
<path d="M9.74998 0V14.8771H14.625V0H9.74998Z" fill="#0D0D12"/>
<path d="M24.3749 14.8771V6.1988H19.5V14.8771H24.3749Z" fill="#0D0D12"/>
<path d="M4.87499 14.8771V8.67832H0V14.8771H4.87499Z" fill="#0D0D12"/>
<path d="M24.3749 28.5145C24.3749 25.5156 26.4685 23.014 29.2499 22.4397V19.8362H34.1249V22.3157H38.9999V27.2747H30.4687C29.7956 27.2747 29.2499 27.8298 29.2499 28.5145C29.2499 29.1992 29.7956 29.7542 30.4687 29.7542H32.9062C36.2717 29.7542 38.9999 32.5295 38.9999 35.953C38.9999 38.952 36.9064 41.4535 34.1249 42.0279V44.6314H29.2499V42.1518H24.3749V37.1928H32.9062C33.5793 37.1928 34.1249 36.6377 34.1249 35.953C34.1249 35.2683 33.5793 34.7133 32.9062 34.7133H30.4687C27.1032 34.7133 24.3749 31.938 24.3749 28.5145Z" fill="#0D0D12"/>
</svg>
