<svg width="44" height="55" viewBox="0 0 44 55" fill="none" xmlns="http://www.w3.org/2000/svg">
<path opacity="0.3" fill-rule="evenodd" clip-rule="evenodd" d="M6.53208 0.204262C8.02725 -0.000224264 9.89435 -0.000117838 12.0613 6.06708e-06H31.9387C34.1057 -0.000117838 35.9728 -0.000224264 37.4679 0.204262C39.0703 0.42341 40.6063 0.917607 41.8521 2.18493C43.098 3.45225 43.5838 5.0147 43.7992 6.6447C44.0002 8.16566 44.0001 10.065 44 12.2693V26.1551C44 26.8266 43.4379 27.3525 42.7778 27.3525C34.0026 27.3525 26.8889 34.5888 26.8889 43.5153C26.8889 45.7707 27.343 47.9183 28.1634 49.8684C29.2064 52.348 29.7279 53.5878 29.3656 54.1464C29.0033 54.705 27.8617 54.705 25.5786 54.705H12.0614C9.89438 54.7051 8.02726 54.7052 6.53208 54.5008C4.9297 54.2816 3.39374 53.7874 2.14789 52.5201C0.902055 51.2528 0.416233 49.6903 0.2008 48.0603C-0.000220463 46.5394 -0.000115841 44.6401 5.96425e-06 42.4357V12.2693C-0.000115841 10.0649 -0.000220463 8.16565 0.2008 6.6447C0.416233 5.0147 0.902055 3.45225 2.1479 2.18493C3.39374 0.917607 4.9297 0.42341 6.53208 0.204262Z" fill="#0D0D12"/>
</svg>
